# xmcd CD database file
#
# Track frame offsets:
#	150
#	14812
#	30489
#	43783
#	57442
#	70936
#	84673
#	98894
#	113896
#	129083
#	145138
#	160960
#	181249
#	193223
#	211107
#	225058
#	238262
#	250411
#	264667
#	281950
#	298561
#	314530
#	332991
#
# Disc length: 4691 seconds
#
# Revision: 0
# Processed by: cddbd v1.5.2PL0 Copyright (c) Steve Scherf et al.
# Submitted via: CDex 1.70beta2
#
DISCID=5c125117
DTITLE=Vários - Mix Sertanejo
DYEAR=2011
DGENRE=Country
TTITLE0=Eu quero só você
TTITLE1=Balada
TTITLE2=Bolo doido
TTITLE3=Romance
TTITLE4=Paraquedas
TTITLE5=Pra que entender
TTITLE6=Inventor dos amores
TTITLE7=Triste, alegre
TTITLE8=Chega mais pra cá
TTITLE9=Sete mares
TTITLE10=Amor covarde
TTITLE11=Refém
TTITLE12=Tô vendendo beijo
TTITLE13=Aí já era
TTITLE14=Fora do comum
TTITLE15=Sou foda
TTITLE16=Quem tem sorte é solteiro
TTITLE17=Amo noite e dia
TTITLE18=Aí que o amor acontece
TTITLE19=Eu vou tentando te agarrar
TTITLE20=60 segundos
TTITLE21=Seu astral Remix
TTITLE22=Balada Remix
EXTD=YEAR: 2011
EXTT0=
EXTT1=
EXTT2=
EXTT3=
EXTT4=
EXTT5=
EXTT6=
EXTT7=
EXTT8=
EXTT9=
EXTT10=
EXTT11=
EXTT12=
EXTT13=
EXTT14=
EXTT15=
EXTT16=
EXTT17=
EXTT18=
EXTT19=
EXTT20=
EXTT21=
EXTT22=
PLAYORDER=
